<svg width="20" height="21" viewBox="0 0 20 21" fill="none" xmlns="http://www.w3.org/2000/svg">
<path fill-rule="evenodd" clip-rule="evenodd" d="M17.4466 11.5017L19.4481 10.5514L17.4745 9.49423C15.153 8.25076 13.5659 7.1079 12.2531 5.71408C10.9421 4.32214 9.86712 2.64033 8.60343 0.246459L7.3656 1.5107C8.67127 3.98411 9.84624 5.84591 11.3213 7.41205C12.0098 8.143 12.7555 8.8009 13.5987 9.42518L0.30615 9.42518L0.30615 11.5613L13.453 11.5613C12.8588 12.0175 12.2984 12.5189 11.7541 13.0866C10.2703 14.6341 8.94296 16.6359 7.37731 19.4495L8.59172 20.757C10.1216 18.0077 11.3511 16.1768 12.6754 14.7956C13.9934 13.421 15.4423 12.4534 17.4466 11.5017Z" fill="white"/>
</svg>
